<svg version="1.1" id="Layer_1" xmlns="http://www.w3.org/2000/svg" x="0" y="0" viewBox="0 0 544 146" style="enable-background:new 0 0 544 146" xml:space="preserve">
  <style>
    .st0{fill:#0b0029}
  </style>
  <path class="st0" d="M216.8 108.7c-12.8 0-19.5-8.9-19.5-17.7 0-1.6 1.2-2.9 2.9-2.9 1.5 0 2.9 1.2 2.9 2.9 0 5.8 4.3 12 13.8 12s13.9-6.2 13.9-12c0-7.8-5.5-9.7-14.4-12.3-7.8-2.3-17.7-5.1-17.7-16.4 0-8.2 6.2-16.5 18.2-16.5s18.3 8.3 18.3 16.5c0 1.6-1.2 2.9-2.9 2.9s-2.9-1.2-2.9-2.9c0-5.2-3.9-10.9-12.6-10.9-8.6 0-12.5 5.7-12.5 10.9 0 6.7 5.1 8.5 13.6 11 8.2 2.4 18.6 5.4 18.6 17.7 0 8.8-6.8 17.7-19.7 17.7zM248 48.6v57.3c0 1.6-1.2 2.9-2.9 2.9s-2.9-1.2-2.9-2.9V48.6c0-1.6 1.2-2.9 2.9-2.9s2.9 1.3 2.9 2.9zm48.5 12c-1.6 0-2.9 1.2-2.9 2.8v5c-4.1-4.8-10.2-7.8-17.1-7.8-12.9 0-22.7 10.3-22.7 24.1 0 13.7 9.8 24.1 22.7 24.1 7 0 13-2.9 17.1-7.8v5c0 1.6 1.2 2.9 2.9 2.9s2.9-1.2 2.9-2.9V63.3c-.1-1.5-1.3-2.7-2.9-2.7zm-20 42.4c-9.7 0-17-7.9-17-18.4 0-10.5 7.3-18.5 17-18.5 9.8 0 17.1 7.9 17.1 18.5 0 10.5-7.3 18.4-17.1 18.4zm42.9 5.7c-6.6 0-12.1-3.1-14.4-8.2-.6-1.4 0-3.1 1.4-3.8 1.4-.6 3.1 0 3.7 1.4 1.1 2.4 4.1 4.9 9.3 4.9 6.5 0 10-4.2 10-8.2 0-5.3-3.2-6.6-10.6-8.5-6.2-1.6-14.1-3.6-14.1-12.8 0-3.3 1.4-6.5 3.8-8.9 2-1.9 5.4-4.1 10.9-4.1 6.2 0 11.2 2.9 13.5 7.6.7 1.4.1 3.1-1.3 3.7-1.4.7-3.1.1-3.8-1.3-1-2.1-3.7-4.4-8.3-4.4-6.6 0-9 4.5-9 7.4 0 4.4 2.9 5.5 9.8 7.2 6.2 1.6 14.9 3.7 14.9 14 0 3.5-1.5 7-4.1 9.5-2.2 2.1-5.8 4.5-11.7 4.5zm60-27.6v24.8c0 1.6-1.2 2.9-2.9 2.9-1.5 0-2.9-1.2-2.9-2.9V81.1c0-8.5-5.9-14.9-13.7-14.9s-13.8 6.4-13.8 14.9v24.8c0 1.6-1.2 2.9-2.9 2.9-1.5 0-2.9-1.2-2.9-2.9V48.6c0-1.6 1.3-2.9 2.9-2.9 1.6 0 2.9 1.2 2.9 2.9v17.7c3.5-3.6 8.3-5.7 13.8-5.7 11.1 0 19.5 8.8 19.5 20.5zm32.1 7.4c10.5-1.1 18.6-10.2 18.6-21.2 0-11.8-9.3-21.3-20.8-21.3h-19.7c-.5 0-.9.4-.9.9v61c0 .4.4.9.9.9s.9-.4.9-.9V88.6H409l18.7 19.9c.2.2.4.3.6.3s.4-.1.6-.3c.4-.4.4-1 0-1.3l-17.4-18.7zm-20.9-1.8V47.8h18.8c10.5 0 19 8.7 19 19.4s-8.5 19.4-19 19.4h-18.8zm88.2-39.9c0 .5-.4 1-.9 1h-21.2v60c0 .4-.4.9-.9.9-.4 0-.9-.4-.9-.9v-60h-21.1c-.5 0-.9-.4-.9-1 0-.4.4-.9.9-.9h44.1c.4 0 .9.5.9.9zm28.9 61.9c-16.9 0-30.7-14.1-30.7-31.4 0-17.3 13.7-31.4 30.7-31.4 8.8 0 17.2 3.9 23 10.7.4.4.3 1-.1 1.3-.4.4-1 .3-1.2-.1-5.5-6.4-13.4-10.1-21.7-10.1-16 0-28.8 13.2-28.8 29.5s12.8 29.5 28.8 29.5c8.3 0 16.1-3.7 21.7-10.1.3-.4.9-.4 1.2-.1.4.4.4.9.1 1.3-5.8 7-14.2 10.9-23 10.9z"/>
  <linearGradient id="SVGID_1_" gradientUnits="userSpaceOnUse" x1="13.575" y1="74.143" x2="151.539" y2="74.143">
    <stop offset="0" style="stop-color:#00ebfd"/>
    <stop offset="1" style="stop-color:#1a2afc"/>
  </linearGradient>
  <path d="M130 5.2H35.2c-11.9 0-21.6 9.7-21.6 21.6v94.8c0 11.9 9.7 21.6 21.6 21.6H130c11.9 0 21.6-9.7 21.6-21.6V26.7c-.1-11.9-9.7-21.5-21.6-21.5z" style="fill:url(#SVGID_1_)"/>
  <path class="st0" d="M116.9 88.3v1.5l-34.5 34.5h-7.8L116.9 82v6.3zm-13.7-.4L99.3 84l-23.7 23.7 3.9 3.9 23.7-23.7zm-27.6 23.7c-1.1-1.1-2.8-1.1-3.9 0l-5.5 5.5c-1 1-1.1 2.5-.3 3.6 1.1 1.4 3.1 1.4 4.2.3l5.5-5.5c1.1-1.1 1.1-2.8 0-3.9zM107.1 84l6.5-6.5c.8-.8 1-2 .6-3-.7-1.8-3.1-2.3-4.5-.9l-6.5 6.5c-1.1 1.1-1.1 2.8 0 3.9 1.1 1 2.8 1 3.9 0zm3.7 17.2-.1.1c-1.1 1.1-1.1 2.9 0 4 1.3 1.4 3.6 1 4.4-.7 0-.1.1-.1.1-.2 1.4-2.8-2.2-5.4-4.4-3.2zm-6.4 10.3c-1.1-1.1-2.8-1.1-3.9 0l-.3.3c-1.1 1.1-1.1 2.8 0 3.9 1 1 2.6 1.1 3.7.1.1-.1.3-.2.4-.3 1.2-1 1.3-2.8.1-4zm-4.7 7.6-3.4-3.4-8.4 8.4c2.4.2 9.3-2.8 11.8-5zm4.7-11.4 3.9 3.9c.7-.9 1.4-1.7 2.1-2.7l-3.6-3.6-2.4 2.4zm-5-31.5 8.2-8.2c1-1 1.1-2.7.1-3.8-1.1-1.2-2.9-1.2-4-.1l-8.2 8.2c-1.1 1.1-1.1 2.8 0 3.9 1 1.1 2.8 1.1 3.9 0zm-9.8 2-7.9 7.9c-1.1 1.1-1.1 2.8 0 3.9s2.8 1.1 3.9 0l7.9-7.9c1.1-1.1 1.1-2.8 0-3.9s-2.8-1.1-3.9 0zM73 102.6l6.7-6.7c1.1-1.1 1.1-2.8 0-3.9s-2.8-1.1-3.9 0l-6.7 6.7c-1.1 1.1-1.1 2.8 0 3.9 1.1 1 2.8 1 3.9 0zm-9.7 1.9-6.5 6.5c-1.1 1.1-1.1 2.9.1 4 1.1 1 2.7.9 3.8-.1l6.5-6.5c1.1-1.1 1.1-2.8 0-3.9-1.1-1-2.9-1-3.9 0zm45.1-38.7c0 .1-.1.1 0 0zm-43.1 3.5L104 30.6l-5.5-2.3-37 37.1 3.8 3.9zm-7.8.1-3.7 3.7c-.6.6-.9 1.4-.8 2.3.4 2.4 3.1 3.2 4.7 1.6l3.7-3.7c1.1-1.1 1.1-2.8 0-3.9-1-1.1-2.8-1.1-3.9 0zm7-28.6.2-.2c1.1-1.1 1.1-2.9 0-4s-2.8-1.1-3.9 0c-.8.7.5-.5-.3.3-1 1.1-1 2.8.1 3.9 1 1.1 2.8 1.1 3.9 0zm12.2-6.1-1.5 1.5c-1.1 1.1-1.1 2.8 0 3.9s2.8 1.1 3.9 0l1.5-1.5c1.1-1.1 1.1-2.8 0-3.9s-2.9-1.1-3.9 0zm9.7-2 1.8-1.8c1.7-1.7.5-4.6-1.8-4.6h-.1c-.8 0-1.5.3-2 .8l-1.8 1.8c-1.1 1.1-1.1 2.8 0 3.8 1.1 1.1 2.8 1.1 3.9 0zM52.6 58.8l-1.3 1.3c-.5.5-.8 1.1-.8 1.8v.3c0 2.4 2.9 3.5 4.5 1.9l1.5-1.5c1-1 1-2.7 0-3.7l-.1-.1c-1.1-1.1-2.8-1.1-3.8 0zm7.7 0L75.1 44l-3.9-3.9-14.8 14.8 3.9 3.9zm19.3 11.8L92.2 58c1.1-1.1 1.1-2.8 0-3.9s-2.8-1.1-3.9 0L75.7 66.7c-1.1 1.1-1.1 2.8 0 3.9s2.8 1.1 3.9 0zm31-35.1c-1.1-1-2.7-.9-3.8.1L94.2 48.2c-1.1 1.1-1.1 2.8 0 3.9s2.8 1.1 3.9 0l12.6-12.6c1.1-1.1 1-2.9-.1-4zM69.8 72.6l-10 10c-.8.8-1.1 2.1-.5 3.1.9 1.8 3.1 2 4.4.7l10-10c1.1-1.1 1.1-2.8 0-3.9-1.1-1-2.8-1-3.9.1zm.8-37.9.2-.2c1.1-1.1 1.1-2.8 0-3.9s-2.8-1.1-3.9 0c-.7.7.5-.5-.2.3-1 1.1-1 2.8.1 3.8 1 1.1 2.7 1.1 3.8 0zM58.5 46.9l.2-.2c1.1-1.1 1.1-2.8 0-3.9s-2.8-1.1-3.9 0c-.8.7.5-.5-.2.3-1 1.1-1 2.8.1 3.9.9.9 2.7.9 3.8-.1z"/>
</svg>
